<svg
  xmlns="http://www.w3.org/2000/svg"
  width="256"
  height="256"
  viewBox="0 0 256 256"
  role="img"
  aria-labelledby="title desc"
>
  <title id="title">XDream Cloud</title>
  <desc id="desc">XDream Cloud logo with a luminous X floating above a cloud</desc>
  <defs>
    <linearGradient id="bg" x1="32" y1="24" x2="228" y2="232" gradientUnits="userSpaceOnUse">
      <stop offset="0" stop-color="#07182d" />
      <stop offset="0.44" stop-color="#0f3f72" />
      <stop offset="1" stop-color="#36b7ff" />
    </linearGradient>
    <radialGradient id="glow" cx="0" cy="0" r="1" gradientTransform="translate(182 60) rotate(125) scale(168 148)" gradientUnits="userSpaceOnUse">
      <stop offset="0" stop-color="#b8f1ff" stop-opacity="0.78" />
      <stop offset="1" stop-color="#b8f1ff" stop-opacity="0" />
    </radialGradient>
    <linearGradient id="xstroke" x1="82" y1="68" x2="176" y2="182" gradientUnits="userSpaceOnUse">
      <stop offset="0" stop-color="#ffffff" />
      <stop offset="0.45" stop-color="#c8f6ff" />
      <stop offset="1" stop-color="#5ec7ff" />
    </linearGradient>
    <linearGradient id="cloudFill" x1="58" y1="104" x2="200" y2="182" gradientUnits="userSpaceOnUse">
      <stop offset="0" stop-color="#edf9ff" stop-opacity="0.98" />
      <stop offset="1" stop-color="#c5edff" stop-opacity="0.92" />
    </linearGradient>
  </defs>

  <rect x="20" y="20" width="216" height="216" rx="56" fill="url(#bg)" />
  <rect x="20" y="20" width="216" height="216" rx="56" fill="url(#glow)" />

  <path
    d="M90 80 166 176"
    fill="none"
    stroke="url(#xstroke)"
    stroke-linecap="round"
    stroke-width="22"
  />
  <path
    d="M166 80 90 176"
    fill="none"
    stroke="url(#xstroke)"
    stroke-linecap="round"
    stroke-width="22"
  />

  <path
    d="M79 184c-20 0-35-15-35-33 0-16 12-30 28-33 8-25 31-42 58-42 34 0 62 25 66 58 15 4 26 18 26 34 0 20-17 36-37 36H79Z"
    fill="#8ed9ff"
    opacity="0.17"
  />
  <path
    d="M79 184c-20 0-35-15-35-33 0-16 12-30 28-33 8-25 31-42 58-42 34 0 62 25 66 58 15 4 26 18 26 34 0 20-17 36-37 36H79Z"
    fill="url(#cloudFill)"
    fill-opacity="0.18"
    stroke="#e6f8ff"
    stroke-opacity="0.84"
    stroke-linejoin="round"
    stroke-width="11"
  />

  <path
    d="M182 50 187 61 198 66 187 71 182 82 177 71 166 66 177 61Z"
    fill="#ffffff"
    fill-opacity="0.92"
  />
</svg>
